<svg xmlns="http://www.w3.org/2000/svg" viewBox="0 0 80 80" fill="none">
  <rect width="80" height="80" rx="20" fill="#F3F0FF"/>
  <ellipse cx="32" cy="38" rx="12" ry="16" fill="#7C3AED" opacity="0.15"/>
  <ellipse cx="48" cy="38" rx="12" ry="16" fill="#7C3AED" opacity="0.15"/>
  <path d="M32 22c-8 0-14 7-14 16s6 16 14 16c2 0 4-1 6-2" stroke="#7C3AED" stroke-width="2.5" stroke-linecap="round"/>
  <path d="M48 22c8 0 14 7 14 16s-6 16-14 16c-2 0-4-1-6-2" stroke="#7C3AED" stroke-width="2.5" stroke-linecap="round"/>
  <path d="M38 22v36" stroke="#7C3AED" stroke-width="2" stroke-linecap="round" stroke-dasharray="3 3"/>
  <circle cx="32" cy="32" r="3" fill="#7C3AED"/>
  <circle cx="48" cy="32" r="3" fill="#7C3AED"/>
  <circle cx="30" cy="42" r="2" fill="#7C3AED" opacity="0.6"/>
  <circle cx="50" cy="42" r="2" fill="#7C3AED" opacity="0.6"/>
</svg>
